# xmcd CD database file generated by GCD 2.95
# 
# Track frame offsets:
#       150
#       23601
#       40726
#       54334
#       81889
#       92035
#       95142
#       108842
#       117785
#       130060
#       139700
#       142298
#       162846
#       173283
#       176271
#       194752
# 
# Disc length: 2976 seconds
# 
# Revision: 3
# Processed by: cddbd v1.5PL3 Copyright (c) Steve Scherf et al.
# Submitted via: GCD 2.95
# 
DISCID=cd0b9e10
DTITLE=Scott H Biram - Houston 2004-01-17
DYEAR=1900
DGENRE=
TTITLE0=Some Day Baby
TTITLE1=Mule Skinner Blues
TTITLE2=Freight Train Boogie
TTITLE3=Fixin' To Die Blues
TTITLE4=Whiskey
TTITLE5="come on up to Austin"
TTITLE6=Ain't It A Shame
TTITLE7=Raisin' Hell Again
TTITLE8=Sweet Thing
TTITLE9=Single Girl
TTITLE10="he's a good man"
TTITLE11=Midnight Special
TTITLE12=White House Blues
TTITLE13="we saved the best for last"
TTITLE14=Truck Driver
TTITLE15=I See The Light
EXTD=
EXTT0=
EXTT1=
EXTT2=
EXTT3=
EXTT4=
EXTT5=
EXTT6=
EXTT7=
EXTT8=
EXTT9=
EXTT10=
EXTT11=
EXTT12=
EXTT13=
EXTT14=
EXTT15=
PLAYORDER=
